<?xml version="1.0" encoding="iso-8859-1"?>
<!-- Generator: Adobe Illustrator 16.0.4, SVG Export Plug-In . SVG Version: 6.00 Build 0)  -->
<!DOCTYPE svg PUBLIC "-//W3C//DTD SVG 1.1//EN" "http://www.w3.org/Graphics/SVG/1.1/DTD/svg11.dtd">
<svg version="1.1" xmlns="http://www.w3.org/2000/svg" xmlns:xlink="http://www.w3.org/1999/xlink" x="0px" y="0px" width="64px"
	 height="64px" viewBox="0 0 64 64" style="enable-background:new 0 0 64 64;" xml:space="preserve">
<symbol  id="HERE_x5F_Logo_x5F_64x64_1_" viewBox="-32 -32 64 64">
	<polygon style="fill:#124191;" points="32,-32 -32,-32 -32,32 32,32 	"/>
	<g id="Nokia_Here_Logo_4_">
		<g>
			<path style="fill:#FFFFFF;" d="M16.188,10.75c-0.287-0.629-0.95-1.703-1.701-2.467c-1.305-1.344-2.543-1.344-3.381-0.65
				l4.929,4.975l-0.62,0.629c-2.895,2.961-5.592,3.115-8.021,0.65c-1.619-1.633-1.839-3.65-1.131-5.488l-1.814,2.17
				c-0.178-0.066-0.509-0.332-0.841-0.671C2.657,8.912,2.436,7.39,2.679,6.38L1.462,7.43L-0.95,4.988l3.32-3.359
				c-2.636,2.192-5.004,2.083-7.197-0.137c-2.215-2.238-2.08-4.97-0.242-7.255L-5.38-5.447c-1.971,1.992-3.875,2.416-5.759,0.492
				c-1.106-1.1-1.284-2.174-1.173-3.137l-4.65,4.682l-2.702-2.731l8.991-9.118h5.492l-3.786,3.83
				c-1.329,1.323-1.728,2.243-0.909,3.071c0.598,0.624,1.286,0.603,2.127-0.248l4.561-4.636l2.746,2.777l-3.409,3.447
				c2.702-2.262,5.644-1.701,7.879,0.582C5.2-5.269,5.842-4.194,6.152-3.455L3.741-2.088C3.388-2.717,2.856-3.5,2.282-4.104
				C0.954-5.447-0.286-5.447-1.127-4.756l4.89,4.95l3.164-3.202l2.744,2.779l-2.965,3c-2.412,2.44-1.705,3.74-1.151,4.301
				C5.91,7.43,6.263,7.701,6.508,7.836c0.331-0.65,0.774-1.278,1.326-1.816c2.874-2.936,6.011-2.531,8.421-0.068
				c1.438,1.457,2.125,2.801,2.301,3.477L16.188,10.75z M-2.854-3.232c-0.754,0.874-0.775,1.902,0,2.686
				c0.753,0.764,1.728,0.786,2.678,0L-2.854-3.232z M9.382,11.848c0.751,0.76,1.725,0.783,2.653,0L9.382,9.156
				C8.63,10.031,8.608,11.041,9.382,11.848z"/>
		</g>
	</g>
</symbol>
<g id="HERE_x5F_Logo_x5F_64x64">
	
		<use xlink:href="#HERE_x5F_Logo_x5F_64x64_1_"  width="64" height="64" x="-32" y="-32" transform="matrix(1 0 0 -1 32 32)" style="overflow:visible;"/>
</g>
<g id="Layer_1">
</g>
</svg>
